<svg width="181" height="194" viewBox="0 0 181 194" fill="none" xmlns="http://www.w3.org/2000/svg">
<path d="M177.469 78.5403L103.847 6.97655C100.126 2.55662 94.743 0.0216663 89.0478 0C83.4357 0 78.0731 2.51329 74.498 6.69489L3.57831 78.4753C0.0447919 82.2452 -0.973692 87.7268 0.980134 92.6017C2.93396 97.455 7.48596 100.51 12.5368 100.51H18.9179V173.482C18.9179 184.813 27.6062 194 38.4562 194H68.9068C72.856 194 76.3687 190.685 76.3687 186.568V138.036C76.3687 135.978 77.6782 134.136 79.6528 134.136H101.145C103.12 134.136 104.637 135.978 104.637 138.036V186.568C104.637 190.685 107.942 194 111.891 194H142.342C153.212 194 162.088 184.813 162.088 173.482V100.532H168.448C173.499 100.532 178.03 97.4983 179.984 92.6451C181.979 87.7918 180.982 82.3102 177.469 78.5403Z" fill="url(#paint0_linear_2174_45)"/>
<defs>
<linearGradient id="paint0_linear_2174_45" x1="139" y1="31" x2="24.1826" y2="191.043" gradientUnits="userSpaceOnUse">
<stop stop-color="#17E9D4"/>
<stop offset="1" stop-color="#C228FF"/>
</linearGradient>
</defs>
</svg>
