<svg width="179" height="183" viewBox="0 0 179 183" fill="none" xmlns="http://www.w3.org/2000/svg">
<path d="M170.761 74.8008L101.581 10.2891C98.0851 6.30469 93.0265 4.01953 87.6749 4C82.4015 4 77.3624 6.26563 74.003 10.0352L7.3624 74.7422C4.04209 78.1406 3.08506 83.082 4.921 87.4766C6.75693 91.8516 11.0343 94.6055 15.7804 94.6055H21.7765V160.387C21.7765 170.602 29.9405 178.883 40.1358 178.883H68.7491C72.4601 178.883 75.7608 175.895 75.7608 172.184V128.434C75.7608 126.578 76.9913 124.918 78.8468 124.918H99.0421C100.898 124.918 102.323 126.578 102.323 128.434V172.184C102.323 175.895 105.429 178.883 109.14 178.883H137.753C147.968 178.883 156.308 170.602 156.308 160.387V94.625H162.284C167.03 94.625 171.288 91.8906 173.124 87.5156C174.999 83.1406 174.062 78.1992 170.761 74.8008Z" stroke="#757575" stroke-width="8"/>
</svg>
