<svg width="702" height="681" viewBox="0 0 702 681" fill="none" xmlns="http://www.w3.org/2000/svg">
<circle cx="349" cy="340" r="300" fill="white"/>
<path d="M64.2188 418.117C23.1558 238.391 141.131 67.1663 313.622 49.1382C318.237 48.6559 321.96 49.7262 325.105 51.9396C328.37 54.2375 331.397 58.0524 333.884 63.5932C338.903 74.7735 341.084 91.5807 339.527 111.494C336.42 151.226 318.681 200.339 284.755 235.059C265.932 254.324 253.002 270.088 244.805 283.058C236.698 295.885 232.72 306.755 233.059 316.025C233.422 325.961 238.67 332.861 245.903 337.298C252.756 341.501 261.516 343.622 270.035 344.872C278.656 346.136 287.877 346.613 295.927 347.067C304.27 347.538 311.021 347.979 315.636 349.021C316.465 349.208 317.124 349.395 317.641 349.566C317.419 349.892 317.14 350.277 316.784 350.722C315.163 352.749 312.485 355.418 308.374 358.842C263.698 396.061 240.646 424.291 230.326 451.131C219.923 478.186 222.866 502.859 227.485 531.298L227.585 531.91L227.79 532.494C245.153 581.954 286.061 611.536 311.578 627.778C314.28 629.497 316.823 631.073 319.147 632.507C317.514 632.417 315.749 632.314 313.846 632.191C276.573 629.781 222.171 612.032 172.973 576.756C123.896 541.566 80.4806 489.291 64.2188 418.117Z" fill="url(#paint0_linear_2186_37)" stroke="url(#paint1_linear_2186_37)" stroke-width="14"/>
<path d="M636.851 262.504C677.914 442.23 559.939 613.455 387.448 631.483C382.833 631.965 379.11 630.895 375.965 628.681C372.7 626.384 369.673 622.569 367.186 617.028C362.167 605.848 359.986 589.04 361.543 569.127C364.649 529.395 382.389 480.282 416.315 445.562C435.138 426.297 448.068 410.533 456.265 397.563C464.372 384.737 468.35 373.866 468.011 364.596C467.648 354.661 462.4 347.76 455.167 343.323C448.314 339.12 439.554 336.999 431.035 335.749C422.413 334.485 413.193 334.008 405.143 333.554C396.8 333.083 390.049 332.642 385.434 331.6C384.605 331.413 383.946 331.226 383.429 331.055C383.65 330.729 383.93 330.344 384.285 329.9C385.907 327.872 388.585 325.203 392.695 321.779C437.372 284.56 460.423 256.331 470.744 229.49C481.147 202.435 478.204 177.763 473.585 149.323L473.485 148.711L473.28 148.127C455.917 98.6672 415.009 69.0854 389.491 52.8431C386.79 51.1237 384.247 49.5478 381.922 48.1139C383.556 48.2043 385.321 48.3076 387.224 48.4306C424.497 50.8397 478.899 68.5889 528.097 103.865C577.173 139.055 620.589 191.33 636.851 262.504Z" fill="url(#paint2_linear_2186_37)" stroke="url(#paint3_linear_2186_37)" stroke-width="14"/>
<defs>
<linearGradient id="paint0_linear_2186_37" x1="82.5" y1="591.5" x2="344" y2="78" gradientUnits="userSpaceOnUse">
<stop stop-color="#732AF1"/>
<stop offset="1" stop-color="#DB1DBC"/>
</linearGradient>
<linearGradient id="paint1_linear_2186_37" x1="328.5" y1="359" x2="46.5" y2="359" gradientUnits="userSpaceOnUse">
<stop stop-color="#F7C8F5"/>
<stop offset="1" stop-color="#BF46E4"/>
</linearGradient>
<linearGradient id="paint2_linear_2186_37" x1="626" y1="156.5" x2="358.5" y2="572" gradientUnits="userSpaceOnUse">
<stop stop-color="#355DE0"/>
<stop offset="1" stop-color="#13DFBD"/>
</linearGradient>
<linearGradient id="paint3_linear_2186_37" x1="372.5" y1="341.5" x2="662" y2="335.5" gradientUnits="userSpaceOnUse">
<stop stop-color="#79FAF2"/>
<stop offset="1" stop-color="#4E97E9"/>
</linearGradient>
</defs>
</svg>
