<svg width="169" height="194" viewBox="0 0 169 194" fill="none" xmlns="http://www.w3.org/2000/svg">
<path d="M82.4307 0C55.138 0 32.9723 21.7086 32.9723 48.5C32.9723 75.2914 55.1283 97 82.4307 97C109.743 97 131.899 75.2914 131.899 48.5C131.899 21.7086 109.762 0 82.4307 0ZM82.4307 0C55.138 0 32.9723 21.7086 32.9723 48.5C32.9723 75.2914 55.1283 97 82.4307 97C109.743 97 131.899 75.2914 131.899 48.5C131.899 21.7086 109.762 0 82.4307 0ZM63.8996 113.17C28.6109 113.17 0 141.222 0 175.812V179.838C0 193.99 28.6109 194 63.8996 194H105.12C140.399 194 169 193.476 169 179.838V175.812C169 141.222 140.399 113.17 105.12 113.17H63.8996Z" fill="url(#paint0_linear_2174_38)"/>
<defs>
<linearGradient id="paint0_linear_2174_38" x1="155" y1="43.5" x2="12.6825" y2="183.411" gradientUnits="userSpaceOnUse">
<stop stop-color="#17E9D4"/>
<stop offset="1" stop-color="#C228FF"/>
</linearGradient>
</defs>
</svg>
