<svg width="200" height="200" viewBox="0 0 200 200" fill="none" xmlns="http://www.w3.org/2000/svg">
<path d="M98.0818 7.54541C72.4818 7.54541 51.6909 27.8909 51.6909 53C51.6909 78.109 72.4727 98.4545 98.0818 98.4545C123.7 98.4545 144.482 78.109 144.482 53C144.482 27.8909 123.718 7.54541 98.0818 7.54541ZM98.0818 7.54541C72.4818 7.54541 51.6909 27.8909 51.6909 53C51.6909 78.109 72.4727 98.4545 98.0818 98.4545C123.7 98.4545 144.482 78.109 144.482 53C144.482 27.8909 123.718 7.54541 98.0818 7.54541ZM80.7 113.609C47.6 113.609 20.7636 139.9 20.7636 172.318V176.091C20.7636 189.355 47.6 189.364 80.7 189.364H119.364C152.455 189.364 179.282 188.873 179.282 176.091V172.318C179.282 139.9 152.455 113.609 119.364 113.609H80.7Z" stroke="#757575" stroke-width="8"/>
</svg>
